HIERARCHY
ROOT Hips
{
	OFFSET -0.001795 -0.223333 0.028219
	CHANNELS 6 Xposition Yposition Zposition Zrotation Yrotation Xrotation 
	JOINT LeftUpLeg
	{
		OFFSET 0.069520 -0.091406 -0.006815
		CHANNELS 3 Zrotation Yrotation Xrotation
		JOINT LeftLeg
		{
			OFFSET 0.034277 -0.375199 -0.004496
			CHANNELS 3 Zrotation Yrotation Xrotation
			JOINT LeftFoot
			{
				OFFSET -0.013596 -0.397961 -0.043693
				CHANNELS 3 Zrotation Yrotation Xrotation
				JOINT LeftToe
				{
					OFFSET 0.026358 -0.055791 0.119288
					CHANNELS 3 Zrotation Yrotation Xrotation
					End Site
					{
						OFFSET 0.000000 0.000000 0.000000
					}
				}
			}
		}
	}
	JOINT RightUpLeg
	{
		OFFSET -0.067670 -0.090522 -0.004320
		CHANNELS 3 Zrotation Yrotation Xrotation
		JOINT RightLeg
		{
			OFFSET -0.038290 -0.382569 -0.008850
			CHANNELS 3 Zrotation Yrotation Xrotation
			JOINT RightFoot
			{
				OFFSET 0.015774 -0.398415 -0.042312
				CHANNELS 3 Zrotation Yrotation Xrotation
				JOINT RightToe
				{
					OFFSET -0.025372 -0.048144 0.123348
					CHANNELS 3 Zrotation Yrotation Xrotation
					End Site
					{
						OFFSET 0.000000 0.000000 0.000000
					}
				}
			}
		}
	}
	JOINT Spine
	{
		OFFSET -0.002533 0.108963 -0.026696
		CHANNELS 3 Zrotation Yrotation Xrotation
		JOINT Spine1
		{
			OFFSET 0.005487 0.135180 0.001092
			CHANNELS 3 Zrotation Yrotation Xrotation
			JOINT Spine2
			{
				OFFSET 0.001457 0.052922 0.025425
				CHANNELS 3 Zrotation Yrotation Xrotation
				JOINT Neck
				{
					OFFSET -0.002778 0.213870 -0.042857
					CHANNELS 3 Zrotation Yrotation Xrotation
					JOINT Head
					{
						OFFSET 0.005152 0.064970 0.051349
						CHANNELS 3 Zrotation Yrotation Xrotation
						End Site
						{
							OFFSET 0.000000 0.000000 0.000000
						}
					}
				}
				JOINT LeftShoulder
				{
					OFFSET 0.078845 0.121749 -0.034090
					CHANNELS 3 Zrotation Yrotation Xrotation
					JOINT LeftArm
					{
						OFFSET 0.090977 0.030469 -0.008868
						CHANNELS 3 Zrotation Yrotation Xrotation
						JOINT LeftForeArm
						{
							OFFSET 0.259612 -0.012772 -0.027456
							CHANNELS 3 Zrotation Yrotation Xrotation
							JOINT LeftHand
							{
								OFFSET 0.249234 0.008986 -0.001171
								CHANNELS 3 Zrotation Yrotation Xrotation
								End Site
								{
									OFFSET 0.000000 0.000000 0.000000
								}
							}
						}
					}
				}
				JOINT RightShoulder
				{
					OFFSET -0.081759 0.118833 -0.038615
					CHANNELS 3 Zrotation Yrotation Xrotation
					JOINT RightArm
					{
						OFFSET -0.096012 0.032551 -0.009143
						CHANNELS 3 Zrotation Yrotation Xrotation
						JOINT RightForeArm
						{
							OFFSET -0.253742 -0.013329 -0.021401
							CHANNELS 3 Zrotation Yrotation Xrotation
							JOINT RightHand
							{
								OFFSET -0.255298 0.007772 -0.005559
								CHANNELS 3 Zrotation Yrotation Xrotation
								End Site
								{
									OFFSET 0.000000 0.000000 0.000000
								}
							}
						}
					}
				}
			}
		}
	}
}
MOTION
Frames: 15
Frame Time: 0.050000
-0.034335 0.969398 1.365210 3.634492 -3.399164 -4.241981 -5.853322 -2.012128 -14.075193 -1.032150 -0.049485 8.382427 1.987720 8.501752 17.055394 0.000000 0.000000 0.000000 -0.802985 -0.137303 1.765382 5.286903 -0.084766 42.596273 -3.049346 -10.204624 8.516067 0.000000 0.000000 0.000000 -2.225227 -0.244993 16.647175 -2.783068 1.233210 -21.742342 -0.157464 12.127820 24.751354 7.935743 -2.881063 -16.789829 0.000000 0.000000 0.000000 -31.530096 -11.794174 1.385475 -29.706279 -0.557586 -3.546865 -4.362499 -26.591871 1.768079 0.000000 0.000000 0.000000 35.016474 5.993720 6.619368 40.745719 3.948893 -5.858421 2.185391 25.711711 1.673461 0.000000 0.000000 0.000000 
-0.029751 0.957687 1.436828 4.164213 -5.590946 -6.697161 -7.801040 -1.579465 -9.381468 0.148658 -0.323731 11.835514 2.330631 7.704431 11.830939 0.000000 0.000000 0.000000 -5.034836 0.358528 -4.763962 8.379456 -0.741895 63.260761 -0.390639 -7.020503 15.006736 0.000000 0.000000 0.000000 -1.704947 -0.275874 18.717729 -3.057452 1.264823 -21.135024 -1.080374 11.619823 23.741251 7.624903 -2.820484 -17.232463 0.000000 0.000000 0.000000 -31.144262 -10.505721 1.314095 -30.427473 -0.265993 -3.869197 -4.627214 -24.094525 1.698592 0.000000 0.000000 0.000000 35.176694 5.700105 5.436369 41.390530 2.490585 -6.072009 3.156822 28.444160 2.119413 0.000000 0.000000 0.000000 
-0.026897 0.950837 1.503657 4.940477 -3.971734 -8.820541 -9.689792 -1.112006 -5.465061 0.403223 -0.509432 16.112995 2.319811 6.447111 5.586523 0.000000 0.000000 0.000000 -6.656181 0.667424 -13.320078 9.262262 -2.019084 75.946343 -1.349737 -9.175708 17.882645 0.000000 0.000000 0.000000 -1.040839 -0.443072 20.474211 -2.372852 1.105585 -20.207305 -2.728641 8.684750 24.325879 7.053948 -2.434934 -19.423157 0.000000 0.000000 0.000000 -31.440886 -11.577893 2.940872 -30.735895 -1.038834 -4.014541 -5.071075 -23.045559 1.753496 0.000000 0.000000 0.000000 34.222053 6.321168 4.840690 41.677725 2.869339 -5.757460 2.935077 28.183971 1.984617 0.000000 0.000000 0.000000 
-0.027396 0.958634 1.567796 4.092058 -1.788754 -9.435721 -8.498421 -0.219768 -0.577286 0.884412 -0.712976 15.935607 2.028905 5.696618 4.363796 0.000000 0.000000 0.000000 -5.941965 1.097327 -20.816264 7.387217 -1.540109 75.800966 -1.661246 -8.860063 14.571028 0.000000 0.000000 0.000000 1.118096 -0.898316 21.086490 -1.613317 0.935434 -19.469137 -3.380735 5.435960 24.339070 6.254466 -2.310312 -19.000574 0.000000 0.000000 0.000000 -32.499498 -12.457164 4.331195 -30.765737 -2.663245 -3.861802 -4.663382 -22.811240 1.688654 0.000000 0.000000 0.000000 33.405100 8.256744 5.299750 41.059586 2.375360 -5.559091 2.509887 27.982650 1.768029 0.000000 0.000000 0.000000 
-0.031985 0.973338 1.631870 2.423148 0.477662 -8.820179 -6.018825 0.587893 4.510855 1.793098 -0.894674 13.364621 0.236056 2.411327 4.452511 0.000000 0.000000 0.000000 -5.261135 1.351027 -24.871032 3.928932 0.113521 61.955182 -1.076099 -6.470753 10.111345 0.000000 0.000000 0.000000 2.730844 -1.200878 19.875138 -0.583111 0.673524 -18.652983 -3.894254 3.355927 24.524875 4.884112 -1.471314 -19.232818 0.000000 0.000000 0.000000 -32.535556 -11.905986 4.222736 -31.657647 -4.133805 -3.716902 -5.197428 -24.208660 1.933261 0.000000 0.000000 0.000000 33.312877 6.953143 4.129976 40.267824 1.182361 -5.743446 4.766074 27.475787 2.217364 0.000000 0.000000 0.000000 
-0.040071 0.986119 1.698168 1.426045 2.190843 -7.278173 -3.978906 1.107514 9.127986 1.448779 -0.680106 10.238341 -0.587808 1.390320 5.506797 0.000000 0.000000 0.000000 -4.250197 1.515353 -25.460103 1.766286 0.546475 38.530299 0.293878 -4.860112 13.939780 0.000000 0.000000 0.000000 2.444058 -1.067821 17.295448 0.539350 0.319907 -16.777570 -3.826524 0.963393 23.242335 3.157482 -0.649488 -17.896945 0.000000 0.000000 0.000000 -32.801410 -10.964117 4.109070 -32.824492 -5.457935 -3.591408 -3.308682 -25.897431 1.701367 0.000000 0.000000 0.000000 33.279953 7.231184 3.685491 41.656094 -0.555752 -6.142886 3.716146 26.275675 1.849423 0.000000 0.000000 0.000000 
-0.050845 0.985735 1.768377 1.608494 3.198566 -6.447392 -2.754559 1.399209 12.766355 1.539420 -0.633278 8.914248 -1.450428 0.111519 6.111072 0.000000 0.000000 0.000000 -3.409485 1.498496 -22.955048 0.080846 0.584659 17.470968 1.389911 -5.235024 22.342541 0.000000 0.000000 0.000000 1.589059 -0.914113 16.218488 1.486932 0.067524 -17.464412 -3.838143 -0.427587 23.179128 3.681173 -1.304871 -16.506165 0.000000 0.000000 0.000000 -33.465359 -11.011169 4.531544 -32.630499 -6.184248 -3.485515 -2.124780 -25.958792 1.462179 0.000000 0.000000 0.000000 33.467516 7.222607 3.281617 42.345998 -2.035497 -6.564138 3.343028 24.724913 1.625339 0.000000 0.000000 0.000000 
-0.062880 0.975355 1.841731 2.510739 4.917330 -5.770849 -2.022640 1.490780 14.972004 1.218474 -0.694807 10.815163 -1.093063 0.680754 5.675990 0.000000 0.000000 0.000000 -3.138986 1.232950 -18.808255 -0.255454 0.184963 4.057469 1.218878 -5.736406 24.651879 0.000000 0.000000 0.000000 0.173658 -0.696032 14.954327 2.802404 -0.261593 -18.350604 -3.372018 -1.474806 23.517116 3.830390 -1.372765 -17.315207 0.000000 0.000000 0.000000 -35.086715 -10.589740 4.332966 -31.106602 -6.940358 -3.206144 -1.515879 -26.004382 1.329741 0.000000 0.000000 0.000000 34.917020 5.849584 2.238748 42.015291 -3.234727 -6.902666 3.569108 23.253976 1.561699 0.000000 0.000000 0.000000 
-0.076966 0.961536 1.918112 2.656520 6.065058 -5.518773 -0.334992 1.327484 16.428989 1.160274 -1.073348 16.635987 -0.973420 -0.294985 3.154770 0.000000 0.000000 0.000000 -1.792493 1.300832 -16.971160 0.217911 0.079928 3.174908 0.080061 -6.567203 21.905824 0.000000 0.000000 0.000000 0.389810 -0.685046 13.978375 2.297145 -0.044350 -18.974343 -3.319872 -2.246185 23.212549 4.230548 -1.890408 -15.462218 0.000000 0.000000 0.000000 -36.346925 -10.493996 4.268491 -29.360139 -6.613302 -3.086350 -0.965114 -25.787337 1.183116 0.000000 0.000000 0.000000 36.115091 6.189312 2.432898 42.416832 -4.667709 -7.374226 3.126044 21.595494 1.352646 0.000000 0.000000 0.000000 
-0.092638 0.950949 1.990876 2.691658 5.065942 -4.868031 0.978536 1.055991 14.679976 0.904597 -1.635169 26.129736 -2.649236 -2.864223 4.598518 0.000000 0.000000 0.000000 -0.393890 1.616691 -17.920711 1.455708 0.051062 11.355126 -0.865609 -6.614602 14.487511 0.000000 0.000000 0.000000 1.837102 -0.718495 12.244396 0.503307 0.453312 -18.322618 -3.263859 -0.589077 23.550884 4.345368 -1.746476 -15.722990 0.000000 0.000000 0.000000 -35.240176 -10.819764 3.945308 -30.146610 -7.179272 -2.903219 0.333770 -24.591486 0.833713 0.000000 0.000000 0.000000 37.027979 5.074377 2.180156 42.878385 -3.195811 -7.161507 2.558500 20.054174 1.186883 0.000000 0.000000 0.000000 
-0.107546 0.949649 2.056068 1.918339 5.130340 -5.784355 4.389709 0.410915 10.076634 -1.258004 -1.817176 40.189545 -5.646883 -4.380216 11.877415 0.000000 0.000000 0.000000 0.725563 1.710062 -17.001605 3.145049 -0.362809 18.924331 -0.810992 -6.036274 12.512845 0.000000 0.000000 0.000000 3.137201 -0.960854 13.715335 -0.564541 0.782618 -18.191859 -2.914417 -0.320428 23.027892 5.056775 -2.080177 -16.560871 0.000000 0.000000 0.000000 -34.878906 -10.651173 3.607792 -31.330037 -6.923071 -2.986297 0.601899 -23.741860 0.747161 0.000000 0.000000 0.000000 36.800430 5.134131 2.382574 43.576271 -1.263944 -6.668588 1.056455 17.990969 0.845274 0.000000 0.000000 0.000000 
-0.120321 0.953529 2.114147 0.627357 4.896190 -5.931847 6.938086 0.025234 3.424545 -1.706022 -2.443219 51.327337 -5.091329 -1.880782 15.228568 0.000000 0.000000 0.000000 2.563954 1.579384 -13.285044 4.033775 -0.628564 19.123932 -1.780588 -6.997836 8.709843 0.000000 0.000000 0.000000 4.502902 -1.181249 14.382530 -1.720913 1.132155 -18.144501 -2.299016 1.531320 23.188309 5.861358 -2.270469 -17.177073 0.000000 0.000000 0.000000 -34.195476 -12.633231 4.157904 -33.026103 -6.799410 -2.924121 0.911239 -22.012241 0.603887 0.000000 0.000000 0.000000 36.673013 5.540121 3.638386 43.944064 1.013170 -6.242714 1.377753 17.578054 0.880735 0.000000 0.000000 0.000000 
-0.130199 0.961622 2.167313 0.527837 3.717058 -5.546721 6.313493 -0.129260 -2.531602 -2.499430 -1.827227 54.623305 -1.717289 2.159834 12.213631 0.000000 0.000000 0.000000 3.612651 1.135410 -8.777843 3.362069 -0.357505 16.753718 -1.400162 -5.724990 6.506985 0.000000 0.000000 0.000000 4.324782 -1.118265 14.074499 -2.484677 1.333019 -18.385017 -1.251661 3.925777 24.070260 6.875764 -2.666322 -17.516961 0.000000 0.000000 0.000000 -34.182363 -13.816562 4.253922 -33.709168 -5.322691 -3.190013 -0.046016 -21.070594 0.729251 0.000000 0.000000 0.000000 36.919412 5.914929 4.824243 41.800979 3.024069 -5.665319 1.767169 19.273532 1.041737 0.000000 0.000000 0.000000 
-0.137657 0.968057 2.217620 0.728920 3.053532 -4.734835 5.556208 -0.451820 -9.396688 -2.878106 -1.217800 52.288546 1.185657 5.319996 7.310336 0.000000 0.000000 0.000000 4.060209 0.477078 -3.703076 2.499400 -0.125398 12.912827 -1.087171 -4.775929 5.460801 0.000000 0.000000 0.000000 4.276800 -1.110195 14.040324 -2.690961 1.368054 -19.537611 -1.219353 5.854419 25.051123 6.266458 -1.892014 -18.163638 0.000000 0.000000 0.000000 -34.305560 -13.633281 3.403583 -34.501580 -3.694594 -3.528947 -1.042551 -22.170485 0.935173 0.000000 0.000000 0.000000 36.268604 4.943178 4.891664 40.952509 4.510509 -5.418142 2.178025 21.256194 1.279551 0.000000 0.000000 0.000000 
-0.142800 0.975338 2.266444 1.486376 2.335537 -4.069471 4.185881 -0.871266 -14.673079 -2.893925 -0.749411 47.136720 1.726597 5.604322 5.295969 0.000000 0.000000 0.000000 3.214510 -0.019037 -0.092922 1.600507 0.067411 11.049362 0.020908 -2.308549 5.314979 0.000000 0.000000 0.000000 4.096791 -1.030957 13.434761 -3.819221 1.673680 -19.413869 -0.668605 7.676654 25.385574 6.940206 -2.087283 -18.431330 0.000000 0.000000 0.000000 -33.899994 -13.566844 2.724891 -35.429353 -3.398978 -3.553011 -1.226341 -21.989988 0.935897 0.000000 0.000000 0.000000 36.056105 4.046475 4.889866 41.369301 6.350816 -5.117548 2.163746 21.981449 1.377300 0.000000 0.000000 0.000000 
